<?xml version="1.0" encoding="utf-8"?>
<!-- Generator: Adobe Illustrator 16.0.0, SVG Export Plug-In . SVG Version: 6.00 Build 0)  -->
<!DOCTYPE svg PUBLIC "-//W3C//DTD SVG 1.1//EN" "http://www.w3.org/Graphics/SVG/1.1/DTD/svg11.dtd">
<svg version="1.1" id="health-category-personal-accident" xmlns="http://www.w3.org/2000/svg" xmlns:xlink="http://www.w3.org/1999/xlink" x="0px" y="0px"
	  viewBox="792.212 520.864 90.915 102.927"
	 enable-background="new 792.212 520.864 90.915 102.927" xml:space="preserve">
<g>
	<g>
		
			<linearGradient id="health-category-personal-accident-1" gradientUnits="userSpaceOnUse" x1="810.5852" y1="-60.7788" x2="868.6594" y2="-60.7788" gradientTransform="matrix(1 0 0 -1 0.1401 511.5869)">
			<stop  offset="0" style="stop-color:#3988FD"/>
			<stop  offset="0.7154" style="stop-color:#1B4DC1"/>
		</linearGradient>
		<path fill="url(#health-category-personal-accident-1)" d="M862.694,576.582c-1.868-1.656-4.076-2.936-6.515-3.704c3.098,0.349,5.812,0.881,5.812,0.881
			c-6.18-3.396-6.019-15.591-6.019-15.591c0.978-21.381-11.707-22.395-14.117-22.395c-0.252,0-0.392,0.012-0.392,0.012l-0.01,0.037
			l-0.012-0.035c0,0-0.142-0.013-0.393-0.013c-2.41,0-15.094,1.012-14.115,22.395c0,0,0.065,5.125-1.571,9.655l9.632,20.37
			l1.975,4.177h6.227c2.94,0,5.325,2.386,5.325,5.325v1.761c0,2.94-2.385,5.326-5.325,5.326h-22.97
			c-2.942,0-5.327-2.386-5.327-5.326v-1.761c0-2.362,1.541-4.363,3.672-5.061l0.458-4.356l1.229-11.742
			c-0.017,0.016-0.035,0.029-0.054,0.044c-3.734,3.305-6.093,8.129-6.093,13.509c0,0.116,0.005,0.225,0.007,0.338
			c-2.073,1.745-3.395,4.354-3.395,7.269v1.761c-0.001,5.239,4.261,9.502,9.501,9.502h22.971c5.239,0,9.502-4.263,9.502-9.503
			v-1.139c1.89,0.033,3.695,0.101,5.363,0.101c4.524,0,8.059-0.507,9.712-3.48c0.655-1.187,1.025-2.751,1.025-4.848
			C868.799,584.708,866.434,579.885,862.694,576.582z"/>
		<path fill="#45D7FF" d="M837.208,554.365c0,0,1.457-0.491,3.76-1.619c-0.149-0.35-0.227-0.73-0.204-1.12
			c0.036-0.624,0.302-1.216,0.751-1.665l0.266-0.266l-0.269-0.268c-0.447-0.449-0.712-1.042-0.749-1.667
			c-0.039-0.708,0.222-1.399,0.719-1.892l1.718-1.719c0.464-0.465,1.085-0.721,1.748-0.721c0.673,0,1.336,0.278,1.811,0.756
			l0.267,0.266l0.265-0.266c0.48-0.48,1.141-0.756,1.812-0.756c0.66,0,1.279,0.255,1.748,0.721l1.715,1.717
			c0.971,0.967,0.96,2.562-0.031,3.562l-0.266,0.265l0.268,0.267c0.447,0.449,0.714,1.043,0.747,1.669
			c0.04,0.707-0.222,1.397-0.716,1.888l-0.398,0.399l0.582,0.074h0.076l0.749,0.138c-0.013,0.591-0.052,1.173-0.137,1.742
			c-0.236,3.127-1.029,6.005-2.235,8.422c-2.19,4.395-5.741,7.251-9.748,7.251c-6.11,0-11.16-6.638-11.951-15.248
			C829.502,556.302,834.325,555.503,837.208,554.365z"/>
		<path fill="#1E3B88" d="M844.676,553.762c0.071,0.072,0.17,0.109,0.271,0.109c0.117,0,0.239-0.048,0.334-0.144l1.741-1.742
			l1.743,1.742c0.096,0.096,0.218,0.144,0.334,0.144c0.103,0,0.199-0.036,0.272-0.111l1.719-1.717
			c0.157-0.158,0.143-0.43-0.034-0.607l-1.741-1.741l1.741-1.742c0.177-0.179,0.191-0.45,0.034-0.606l-1.719-1.72
			c-0.073-0.073-0.169-0.109-0.27-0.109c-0.119,0-0.241,0.049-0.337,0.145l-1.741,1.742l-1.743-1.742
			c-0.096-0.096-0.219-0.145-0.334-0.145c-0.102,0-0.199,0.036-0.271,0.109l-1.719,1.718c-0.158,0.158-0.144,0.43,0.033,0.609
			l1.742,1.741l-1.742,1.741c-0.177,0.178-0.191,0.449-0.033,0.607L844.676,553.762z"/>
		<path fill="#45D7FF" d="M841.609,583.168l-6.855-12.598c1.953,1.95,4.312,3.091,6.854,3.091c2.484,0,4.795-1.089,6.72-2.957
			L841.609,583.168z"/>
	</g>
	<circle fill="#FF9B41" cx="796.832" cy="560.305" r="4.622"/>
	<circle fill="#5083FC" cx="863.864" cy="620.505" r="3.285"/>
	
		<rect x="868.573" y="523.361" transform="matrix(0.7071 0.7071 -0.7071 0.7071 630.4996 -463.3823)" fill="#45D7FF" width="12.057" height="12.057"/>
</g>
</svg>
