<?xml version="1.0" encoding="utf-8"?>
<!-- Generator: Adobe Illustrator 16.0.0, SVG Export Plug-In . SVG Version: 6.00 Build 0)  -->
<!DOCTYPE svg PUBLIC "-//W3C//DTD SVG 1.1//EN" "http://www.w3.org/Graphics/SVG/1.1/DTD/svg11.dtd">
<svg version="1.1" id="individual-benefits-portability" xmlns="http://www.w3.org/2000/svg" xmlns:xlink="http://www.w3.org/1999/xlink" x="0px" y="0px"
	 width="100px" height="100px" viewBox="721.323 206.266 100 100" enable-background="new 721.323 206.266 100 100"
	 xml:space="preserve">
<circle fill="#FF9B41" cx="736.232" cy="225.415" r="3.993"/>
<circle fill="#5083FC" cx="800.8" cy="234.491" r="2.838"/>
<rect x="743.217" y="291.83" transform="matrix(0.7071 0.7072 -0.7072 0.7071 429.2943 -442.2376)" fill="#45D7FF" width="10.415" height="10.414"/>
<linearGradient id="individual-benefits-portability-1" gradientUnits="userSpaceOnUse" x1="733.9163" y1="269.2368" x2="812.3547" y2="269.2368">
	<stop  offset="0" style="stop-color:#3988FD"/>
	<stop  offset="0.7154" style="stop-color:#1B4DC1"/>
</linearGradient>
<path fill="url(#individual-benefits-portability-1)" d="M739.659,253.396c0.924,0.012,1.879,0.231,2.844,0.695l16.717,8.025
	c0.795-1.83,2.703-3.099,4.849-3.037l9.587,0.307c2.351,0,4.139-0.578,6.38-1.228c2.25-0.648,4.912-1.363,8.609-1.363
	c3.047,0,7.16,0.929,10.507,2.062v-2.09c0-0.234,0.021-0.452,0.111-0.669c0.087-0.216,0.222-0.421,0.388-0.585
	c0.167-0.166,0.368-0.301,0.588-0.391c0.214-0.089,0.46-0.14,0.693-0.14h9.644c0.231,0,0.478,0.051,0.693,0.14
	c0.215,0.09,0.42,0.225,0.586,0.391c0.167,0.164,0.303,0.369,0.39,0.585c0.091,0.217,0.11,0.435,0.11,0.669v7.301v19.226
	c0,0.232-0.02,0.479-0.11,0.694c-0.087,0.215-0.223,0.396-0.39,0.56c-0.166,0.163-0.371,0.301-0.586,0.392
	c-0.216,0.087-0.462,0.14-0.693,0.14h-9.644c-0.233,0-0.479-0.053-0.693-0.14c-0.22-0.091-0.421-0.229-0.588-0.392
	c-0.166-0.164-0.301-0.345-0.388-0.56c-0.091-0.216-0.111-0.462-0.111-0.694v-2.286c-11.743-2.077-18.737,1.478-29.313,1.478
	c-2.188,0-4.489-1.074-7.355-2.564c-2.871-1.488-6.154-3.484-9.477-5.627c-6.637-4.287-13.426-9.191-16.967-11.593
	c-1.215-0.82-1.943-2.09-2.089-3.369c-0.149-1.281,0.205-2.559,0.919-3.595C735.848,254.31,737.633,253.369,739.659,253.396z
	 M808.79,258.549h-1.617v22.96h1.617v-17.441V258.549L808.79,258.549z"/>
<path fill="#45D7FF" d="M768.405,240.348c0.231,0.003,0.465,0.053,0.676,0.146c0.216,0.091,0.411,0.227,0.574,0.395
	c0.162,0.167,0.29,0.366,0.377,0.583c0.088,0.218,0.129,0.452,0.126,0.684v4.253h4.255c0.236-0.004,0.473,0.039,0.691,0.127
	c0.219,0.087,0.419,0.219,0.589,0.383c0.168,0.165,0.303,0.365,0.396,0.583c0.091,0.217,0.139,0.452,0.139,0.689
	c0,0.236-0.048,0.472-0.139,0.691c-0.094,0.217-0.229,0.416-0.396,0.581c-0.17,0.164-0.37,0.297-0.589,0.385
	c-0.219,0.087-0.455,0.13-0.691,0.126h-4.255v4.253c0.003,0.237-0.038,0.473-0.128,0.689c-0.087,0.219-0.22,0.418-0.386,0.586
	c-0.163,0.168-0.365,0.303-0.581,0.393c-0.218,0.091-0.45,0.138-0.687,0.138c-0.235,0-0.472-0.047-0.688-0.138
	c-0.219-0.09-0.416-0.225-0.582-0.393c-0.164-0.168-0.296-0.367-0.386-0.586c-0.087-0.217-0.133-0.452-0.129-0.689v-4.253h-4.251
	c-0.237,0.004-0.477-0.039-0.695-0.126c-0.219-0.088-0.42-0.221-0.587-0.385c-0.17-0.165-0.305-0.364-0.395-0.581
	c-0.094-0.219-0.14-0.455-0.14-0.691c0-0.237,0.046-0.472,0.14-0.689c0.09-0.219,0.225-0.419,0.395-0.583
	c0.167-0.165,0.368-0.296,0.587-0.383c0.219-0.088,0.458-0.132,0.695-0.127h4.251v-4.253c-0.004-0.238,0.042-0.475,0.132-0.696
	c0.091-0.22,0.222-0.423,0.392-0.59c0.168-0.168,0.368-0.302,0.591-0.392C767.925,240.389,768.165,240.344,768.405,240.348
	L768.405,240.348z"/>
<path fill="#45D7FF" d="M761.108,229.202c0.236,0.003,0.465,0.054,0.681,0.146c0.215,0.094,0.409,0.228,0.572,0.396
	c0.163,0.167,0.292,0.367,0.379,0.583s0.129,0.451,0.125,0.684v1.705h1.704c0.236-0.005,0.472,0.038,0.691,0.126
	c0.218,0.087,0.423,0.219,0.59,0.383c0.17,0.165,0.301,0.365,0.395,0.583c0.091,0.217,0.14,0.453,0.14,0.688
	c0,0.236-0.049,0.473-0.14,0.689c-0.094,0.219-0.225,0.418-0.395,0.583c-0.167,0.165-0.372,0.297-0.59,0.385
	c-0.22,0.087-0.455,0.13-0.691,0.125h-1.704v1.696c0.004,0.234-0.042,0.47-0.129,0.689s-0.218,0.418-0.386,0.585
	c-0.166,0.168-0.363,0.302-0.579,0.392c-0.219,0.092-0.455,0.139-0.69,0.139c-0.233,0-0.469-0.047-0.687-0.139
	c-0.216-0.09-0.414-0.224-0.581-0.392c-0.166-0.167-0.298-0.366-0.384-0.585c-0.089-0.219-0.133-0.455-0.13-0.689v-1.696h-1.693
	c-0.236,0.005-0.475-0.038-0.694-0.125c-0.219-0.088-0.42-0.22-0.586-0.385c-0.17-0.165-0.307-0.364-0.396-0.583
	c-0.09-0.217-0.139-0.453-0.139-0.689c0-0.235,0.049-0.472,0.139-0.688c0.09-0.219,0.227-0.418,0.396-0.583
	c0.166-0.165,0.367-0.296,0.586-0.383c0.22-0.088,0.458-0.132,0.694-0.126h1.693v-1.705c-0.003-0.238,0.041-0.476,0.132-0.696
	c0.087-0.221,0.223-0.421,0.39-0.59c0.17-0.168,0.371-0.302,0.593-0.392C760.633,229.243,760.871,229.198,761.108,229.202
	L761.108,229.202z"/>
<path fill="#45D7FF" d="M775.697,229.202c0.233,0.003,0.466,0.054,0.681,0.146c0.212,0.094,0.41,0.228,0.572,0.396
	c0.16,0.167,0.292,0.367,0.375,0.583c0.087,0.217,0.132,0.451,0.13,0.684v1.705h1.699c0.237-0.005,0.477,0.038,0.694,0.126
	c0.22,0.087,0.421,0.219,0.588,0.383c0.17,0.165,0.305,0.365,0.395,0.583c0.09,0.217,0.14,0.453,0.14,0.688
	c0,0.236-0.05,0.473-0.14,0.689c-0.09,0.219-0.225,0.418-0.395,0.583c-0.167,0.165-0.368,0.297-0.588,0.385
	c-0.218,0.087-0.457,0.13-0.694,0.125h-1.699v1.696c0.002,0.234-0.043,0.47-0.133,0.689c-0.087,0.219-0.22,0.418-0.386,0.585
	c-0.163,0.168-0.361,0.302-0.579,0.392c-0.22,0.092-0.451,0.139-0.688,0.139s-0.472-0.047-0.688-0.139
	c-0.219-0.09-0.417-0.224-0.583-0.392c-0.163-0.167-0.295-0.366-0.386-0.585c-0.087-0.219-0.131-0.455-0.128-0.689v-1.696h-1.694
	c-0.235,0.005-0.472-0.038-0.69-0.125c-0.223-0.088-0.423-0.22-0.59-0.385c-0.171-0.165-0.306-0.364-0.396-0.583
	c-0.091-0.217-0.139-0.453-0.139-0.689c0-0.235,0.048-0.472,0.139-0.688c0.09-0.219,0.225-0.418,0.396-0.583
	c0.167-0.165,0.367-0.296,0.59-0.383c0.219-0.088,0.455-0.132,0.69-0.126h1.694v-1.705c-0.003-0.238,0.041-0.476,0.132-0.696
	c0.09-0.221,0.223-0.421,0.393-0.59c0.166-0.168,0.371-0.302,0.59-0.392C775.222,229.243,775.457,229.198,775.697,229.202
	L775.697,229.202z"/>
</svg>
